<svg xmlns="http://www.w3.org/2000/svg" xml:space="preserve" width="108.926mm" height="22.1565mm" version="1.1" style="shape-rendering:geometricPrecision; text-rendering:geometricPrecision; image-rendering:optimizeQuality; fill-rule:evenodd; clip-rule:evenodd" viewBox="0 0 10878.34 2212.75" xmlns:xlink="http://www.w3.org/1999/xlink" xmlns:xodm="http://www.corel.com/coreldraw/odm/2003">
 <defs>
  <style type="text/css">
   <![CDATA[
    .str0 {stroke:#1C3D6F;stroke-width:38.84;stroke-miterlimit:22.9256}
    .fil2 {fill:none;fill-rule:nonzero}
    .fil1 {fill:#1C3D6F;fill-rule:nonzero}
    .fil0 {fill:#ED6625;fill-rule:nonzero}
   ]]>
  </style>
 </defs>
 <g id="Layer_x0020_1">
  <metadata id="CorelCorpID_0Corel-Layer"/>
  <g id="Layer_1" data-name="Layer 1">
   <g>
    <path class="fil0" d="M1396.99 288.52l-351.68 234.38c-8.55,-13.79 -103.5,-162.54 -282.74,-172.44 -138.65,-7.57 -271.67,70.88 -337.89,200.02 5.43,-39.23 32.82,-202.16 179.24,-324.11 125.26,-104.08 262.16,-115.35 306.82,-117.29 65.05,-2.72 184.09,1.36 313.62,62.14 77.48,36.12 134.38,81.17 172.63,117.29l0 0.01z"/>
    <path class="fil1" d="M1042.4 54.33c-60.98,-5.24 -237.88,-12.42 -420.62,96.51 -174.38,103.89 -252.25,252.84 -278.47,309.35 -19.61,60.78 -44.27,168.17 -17.29,294.19 61.95,290.51 341.19,416.15 374.98,430.72 -220.99,65.83 -454.41,5.63 -590.54,-154.19 -220.79,-259.24 -45.44,-615.58 -27.38,-651.12 135.15,-263.9 405.28,-336.92 464.5,-353.04 230.89,-62.53 424.11,0.58 494.79,27.57l0.02 0z"/>
    <path class="fil1" d="M32.22 1008.77c173.41,201.77 430.33,297.5 668.98,244.1 209.34,-46.8 332.07,-192.06 372.07,-244.1 110.3,71.27 220.6,142.53 330.9,213.8 -45.63,63.11 -117.49,144.87 -224.68,213.61 -253.23,162.35 -520.24,134.38 -606.46,121.56 -64.48,-15.73 -223.9,-64.09 -361.59,-211.08 -122.53,-131.08 -164.28,-272.64 -179.24,-337.89z"/>
    <path class="fil1" d="M2197.06 1379.05c-111.35,0 -213.44,-25.88 -306.24,-77.62 -92.81,-51.74 -166.49,-124.02 -221.04,-216.83 -54.56,-92.8 -81.84,-197.13 -81.84,-312.99 0,-115.87 27.28,-219.92 81.84,-312.16 54.55,-92.24 128.23,-164.23 221.04,-215.98 92.8,-51.74 194.88,-77.62 306.24,-77.62 111.36,0 213.45,25.88 306.25,77.62 92.81,51.75 165.92,123.74 219.35,215.98 53.44,92.24 80.16,196.29 80.16,312.16 0,115.86 -27,220.19 -80.99,312.99 -54,92.81 -127.11,165.08 -219.35,216.83 -92.24,51.74 -194.05,77.62 -305.41,77.62zm0 -263.23c94.5,0 170.15,-31.5 226.95,-94.49 56.81,-63 85.21,-146.24 85.21,-249.72 0,-104.61 -28.4,-188.14 -85.21,-250.57 -56.81,-62.43 -132.46,-93.65 -226.95,-93.65 -95.61,0 -171.83,30.94 -228.63,92.81 -56.81,61.87 -85.21,145.67 -85.21,251.41 0,104.61 28.4,188.13 85.21,250.56 56.81,62.43 133.02,93.65 228.63,93.65z"/>
    <polygon id="_1" class="fil1" points="4304.53,182.74 4304.53,1367.24 4016,1367.24 4016,656.88 3751.09,1367.24 3518.24,1367.24 3251.64,655.19 3251.64,1367.24 2963.11,1367.24 2963.11,182.74 3303.95,182.74 3636.35,1002.78 3965.38,182.74 "/>
    <path id="_2" class="fil1" d="M5414.79 564.07c0,68.62 -15.75,131.34 -47.25,188.14 -31.5,56.81 -79.87,102.65 -145.11,137.51 -65.24,34.87 -146.23,52.31 -242.97,52.31l-178.86 0 0 425.2 -288.53 0 0 -1184.5 467.39 0c94.49,0 174.36,16.31 239.6,48.94 65.24,32.62 114.18,77.61 146.8,134.98 32.63,57.36 48.94,123.17 48.94,197.41zm-457.26 148.49c55.12,0 96.17,-12.93 123.17,-38.81 26.99,-25.87 40.5,-62.43 40.5,-109.68 0,-47.24 -13.5,-83.8 -40.5,-109.68 -26.99,-25.87 -68.05,-38.8 -123.17,-38.8l-156.92 0 0 296.96 156.92 0z"/>
    <path id="_3" class="fil1" d="M5848.43 182.74l0 708.67c0,70.87 17.44,125.43 52.31,163.68 34.86,38.24 86.05,57.36 153.54,57.36 67.5,0 119.24,-19.12 155.24,-57.36 35.99,-38.25 54,-92.81 54,-163.68l0 -708.67 288.53 0 0 706.98c0,105.74 -22.5,195.17 -67.5,268.29 -44.99,73.11 -105.45,128.23 -181.38,165.35 -75.93,37.12 -160.58,55.69 -253.94,55.69 -93.37,0 -176.89,-18.29 -250.57,-54.84 -73.68,-36.56 -131.89,-91.68 -174.64,-165.36 -42.74,-73.67 -64.12,-163.39 -64.12,-269.13l0 -706.98 288.53 0z"/>
    <polygon id="_4" class="fil1" points="7606.62,182.74 7606.62,413.91 7292.78,413.91 7292.78,1367.24 7004.25,1367.24 7004.25,413.91 6690.41,413.91 6690.41,182.74 "/>
    <polygon id="_5" class="fil1" points="8767.5,182.74 8357.48,975.78 8357.48,1367.24 8068.95,1367.24 8068.95,975.78 7658.93,182.74 7986.27,182.74 8215.74,678.81 8443.54,182.74 "/>
    <polygon id="_6" class="fil1" points="9943.56,1367.24 9655.03,1367.24 9172.45,636.63 9172.45,1367.24 8883.92,1367.24 8883.92,182.74 9172.45,182.74 9655.03,916.73 9655.03,182.74 9943.56,182.74 "/>
    <polygon id="_7" class="fil1" points="10441.32,413.91 10441.32,653.5 10827.71,653.5 10827.71,876.23 10441.32,876.23 10441.32,1136.07 10878.34,1136.07 10878.34,1367.24 10152.79,1367.24 10152.79,182.74 10878.34,182.74 10878.34,413.91 "/>
   </g>
   <g>
    <path class="fil1" d="M1106.82 2212.75c-35.02,0 -67.28,-5.77 -96.76,-17.31 -29.47,-11.53 -55.11,-27.66 -76.9,-48.38 -21.78,-20.72 -38.66,-45.08 -50.62,-73.05 -11.96,-27.98 -17.95,-58.64 -17.95,-91.96 0,-33.33 5.98,-63.98 17.95,-91.96 11.96,-27.98 28.84,-52.34 50.62,-73.05 21.79,-20.72 47.43,-36.85 76.9,-48.39 29.48,-11.53 61.52,-17.31 96.12,-17.31 35.03,0 67.18,5.77 96.44,17.31 29.27,11.53 54.8,27.66 76.58,48.39 21.79,20.71 38.67,45.07 50.63,73.05 11.95,27.98 17.94,58.63 17.94,91.96 0,33.32 -5.98,64.08 -17.94,92.28 -11.96,28.19 -28.84,52.54 -50.63,73.05 -21.78,20.5 -47.31,36.52 -76.58,48.06 -29.26,11.53 -61.2,17.31 -95.8,17.31zm-0.64 -73.05c22.65,0 43.58,-3.84 62.81,-11.53 19.22,-7.69 35.88,-18.7 49.98,-33.01 14.09,-14.31 25.1,-30.97 33,-49.98 7.91,-19.02 11.85,-40.05 11.85,-63.12 0,-23.07 -3.94,-44.11 -11.85,-63.13 -7.9,-19.02 -18.91,-35.67 -33,-49.98 -14.1,-14.31 -30.76,-25.32 -49.98,-33.01 -19.22,-7.69 -40.16,-11.53 -62.81,-11.53 -22.64,0 -43.46,3.84 -62.48,11.53 -19.02,7.69 -35.67,18.7 -49.98,33.01 -14.31,14.31 -25.42,30.97 -33.33,49.98 -7.9,19.02 -11.85,40.06 -11.85,63.13 0,22.64 3.95,43.57 11.85,62.8 7.91,19.22 18.91,35.99 33.01,50.3 14.1,14.31 30.76,25.32 49.98,33.01 19.22,7.69 40.16,11.53 62.8,11.53z"/>
    <path id="_1_0" class="fil1" d="M1667.56 2212.75c-61.52,0 -109.69,-17.31 -144.51,-51.91 -34.81,-34.6 -52.22,-84.59 -52.22,-149.95l0 -253.13 83.3 0 0 249.92c0,46.14 9.94,79.68 29.8,100.61 19.86,20.94 47.96,31.41 84.27,31.41 36.31,0 64.3,-10.47 83.95,-31.41 19.65,-20.93 29.48,-54.47 29.48,-100.61l0 -249.92 82.02 0 0 253.13c0,65.36 -17.41,115.35 -52.23,149.95 -34.81,34.6 -82.77,51.91 -143.86,51.91z"/>
    <polygon id="_2_1" class="fil1" points="2101.4,2206.34 2101.4,1828.25 1952.73,1828.25 1952.73,1757.76 2333.39,1757.76 2333.39,1828.25 2184.71,1828.25 2184.71,2206.34 "/>
    <path id="_3_2" class="fil1" d="M2522.44 2212.75c-35.03,0 -68.57,-5.02 -100.61,-15.06 -32.05,-10.05 -57.46,-22.97 -76.26,-38.77l28.83 -64.73c17.95,14.09 40.16,25.85 66.65,35.24 26.49,9.4 53.61,14.1 81.38,14.1 23.5,0 42.5,-2.57 57.04,-7.69 14.52,-5.13 25.21,-12.07 32.04,-20.83 6.84,-8.76 10.26,-18.69 10.26,-29.8 0,-13.66 -4.91,-24.67 -14.74,-33 -9.83,-8.33 -22.54,-14.95 -38.13,-19.86 -15.59,-4.91 -32.9,-9.51 -51.9,-13.78 -19.02,-4.27 -38.03,-9.29 -57.04,-15.06 -19.02,-5.76 -36.31,-13.24 -51.91,-22.43 -15.59,-9.18 -28.3,-21.46 -38.13,-36.84 -9.83,-15.38 -14.74,-35.03 -14.74,-58.96 0,-24.35 6.52,-46.67 19.54,-66.96 13.03,-20.29 32.9,-36.53 59.6,-48.71 26.71,-12.17 60.56,-18.27 101.57,-18.27 26.91,0 53.62,3.43 80.11,10.26 26.5,6.84 49.57,16.66 69.21,29.48l-26.27 64.73c-20.08,-11.96 -40.81,-20.83 -62.17,-26.6 -21.36,-5.77 -41.87,-8.66 -61.52,-8.66 -23.07,0 -41.76,2.79 -56.07,8.34 -14.31,5.55 -24.78,12.81 -31.41,21.78 -6.62,8.98 -9.93,19.22 -9.93,30.76 0,13.67 4.8,24.68 14.42,33.01 9.61,8.33 22.21,14.84 37.81,19.54 15.59,4.7 33,9.29 52.22,13.78 19.22,4.48 38.34,9.5 57.35,15.06 19.02,5.55 36.31,12.81 51.91,21.78 15.59,8.98 28.19,21.15 37.8,36.53 9.62,15.38 14.42,34.81 14.42,58.31 0,23.93 -6.51,46.03 -19.54,66.32 -13.03,20.29 -33,36.53 -59.92,48.71 -26.91,12.17 -60.87,18.27 -101.89,18.27z"/>
    <path id="_4_3" class="fil1" d="M2996.65 2212.75c-35.02,0 -67.28,-5.77 -96.76,-17.31 -29.47,-11.53 -55.11,-27.66 -76.9,-48.38 -21.78,-20.72 -38.66,-45.08 -50.62,-73.05 -11.96,-27.98 -17.95,-58.64 -17.95,-91.96 0,-33.33 5.98,-63.98 17.95,-91.96 11.96,-27.98 28.84,-52.34 50.62,-73.05 21.79,-20.72 47.43,-36.85 76.9,-48.39 29.48,-11.53 61.52,-17.31 96.12,-17.31 35.03,0 67.18,5.77 96.44,17.31 29.27,11.53 54.8,27.66 76.58,48.39 21.79,20.71 38.67,45.07 50.63,73.05 11.95,27.98 17.94,58.63 17.94,91.96 0,33.32 -5.98,64.08 -17.94,92.28 -11.96,28.19 -28.84,52.54 -50.63,73.05 -21.78,20.5 -47.31,36.52 -76.58,48.06 -29.26,11.53 -61.2,17.31 -95.8,17.31zm-0.64 -73.05c22.65,0 43.58,-3.84 62.81,-11.53 19.22,-7.69 35.88,-18.7 49.98,-33.01 14.09,-14.31 25.1,-30.97 33,-49.98 7.91,-19.02 11.85,-40.05 11.85,-63.12 0,-23.07 -3.94,-44.11 -11.85,-63.13 -7.9,-19.02 -18.91,-35.67 -33,-49.98 -14.1,-14.31 -30.76,-25.32 -49.98,-33.01 -19.22,-7.69 -40.16,-11.53 -62.81,-11.53 -22.64,0 -43.46,3.84 -62.48,11.53 -19.02,7.69 -35.67,18.7 -49.98,33.01 -14.31,14.31 -25.42,30.97 -33.33,49.98 -7.9,19.02 -11.85,40.06 -11.85,63.13 0,22.64 3.95,43.57 11.85,62.8 7.91,19.22 18.91,35.99 33.01,50.3 14.1,14.31 30.76,25.32 49.98,33.01 19.22,7.69 40.16,11.53 62.8,11.53z"/>
    <path id="_5_4" class="fil1" d="M3518.93 2212.75c-61.52,0 -109.69,-17.31 -144.51,-51.91 -34.81,-34.6 -52.22,-84.59 -52.22,-149.95l0 -253.13 83.3 0 0 249.92c0,46.14 9.94,79.68 29.8,100.61 19.86,20.94 47.96,31.41 84.27,31.41 36.31,0 64.3,-10.47 83.95,-31.41 19.65,-20.93 29.48,-54.47 29.48,-100.61l0 -249.92 82.02 0 0 253.13c0,65.36 -17.41,115.35 -52.23,149.95 -34.81,34.6 -82.77,51.91 -143.86,51.91z"/>
    <path id="_6_5" class="fil1" d="M3831.66 2206.34l0 -448.58 183.92 0c59.81,0 106.69,14.1 140.66,42.29 33.97,28.19 50.95,67.29 50.95,117.28 0,32.9 -7.69,61.2 -23.07,84.91 -15.38,23.71 -37.28,41.87 -65.69,54.47 -28.4,12.6 -62.48,18.91 -102.21,18.91l-138.42 0 37.16 -37.81 0 168.54 -83.3 0zm293.5 0l-113.42 -162.77 89.07 0 114.07 162.77 -89.72 0zm-210.19 -159.57l-37.16 -39.73 134.57 0c36.74,0 64.41,-7.9 82.98,-23.71 18.59,-15.81 27.88,-37.81 27.88,-66 0,-28.62 -9.3,-50.63 -27.88,-66.01 -18.58,-15.38 -46.24,-23.07 -82.98,-23.07l-134.57 0 37.16 -41.01 0 259.53z"/>
    <path id="_7_6" class="fil1" d="M4507.74 2212.75c-34.18,0 -65.9,-5.66 -95.17,-16.99 -29.26,-11.32 -54.69,-27.34 -76.26,-48.06 -21.57,-20.72 -38.34,-45.18 -50.3,-73.37 -11.96,-28.2 -17.95,-58.96 -17.95,-92.28 0,-33.33 5.98,-64.09 17.95,-92.28 11.96,-28.2 28.84,-52.66 50.62,-73.38 21.79,-20.71 47.21,-36.74 76.26,-48.06 29.05,-11.33 60.88,-16.99 95.48,-16.99 36.74,0 70.28,6.3 100.61,18.91 30.33,12.6 55.97,31.3 76.9,56.08l-53.83 50.62c-16.23,-17.52 -34.38,-30.65 -54.47,-39.41 -20.08,-8.76 -41.87,-13.14 -65.36,-13.14 -23.5,0 -44.96,3.84 -64.41,11.53 -19.43,7.69 -36.31,18.59 -50.62,32.69 -14.31,14.1 -25.42,30.76 -33.33,49.98 -7.9,19.22 -11.85,40.38 -11.85,63.45 0,23.07 3.95,44.21 11.85,63.44 7.91,19.22 19.02,35.88 33.33,49.98 14.31,14.1 31.19,25 50.62,32.69 19.44,7.69 40.91,11.53 64.41,11.53 23.5,0 45.28,-4.38 65.36,-13.14 20.08,-8.76 38.24,-22.11 54.47,-40.05l53.83 51.26c-20.93,24.35 -46.57,42.93 -76.9,55.76 -30.33,12.81 -64.09,19.22 -101.25,19.22z"/>
    <polygon id="_8" class="fil1" points="4760.23,2206.34 4760.23,1757.76 4843.53,1757.76 4843.53,2206.34 "/>
    <polygon id="_9" class="fil1" points="4964.65,2206.34 4964.65,1757.76 5033.22,1757.76 5314.54,2103.17 5280.58,2103.17 5280.58,1757.76 5363.25,1757.76 5363.25,2206.34 5294.68,2206.34 5013.35,1860.93 5047.31,1860.93 5047.31,2206.34 "/>
    <path id="_10" class="fil1" d="M5693.27 2212.75c-35.02,0 -67.18,-5.66 -96.44,-16.99 -29.26,-11.32 -54.79,-27.34 -76.58,-48.06 -21.78,-20.72 -38.66,-45.18 -50.62,-73.37 -11.96,-28.2 -17.95,-58.96 -17.95,-92.28 0,-33.33 5.98,-64.09 17.95,-92.28 11.96,-28.2 28.94,-52.66 50.94,-73.38 22,-20.71 47.75,-36.74 77.22,-48.06 29.48,-11.33 61.74,-16.99 96.77,-16.99 38.02,0 72.31,6.2 102.85,18.59 30.55,12.39 56.29,30.55 77.23,54.47l-52.55 51.27c-17.52,-17.52 -36.42,-30.44 -56.72,-38.77 -20.29,-8.33 -42.61,-12.5 -66.96,-12.5 -23.5,0 -45.29,3.84 -65.36,11.53 -20.08,7.69 -37.38,18.59 -51.91,32.69 -14.52,14.1 -25.74,30.76 -33.65,49.98 -7.9,19.22 -11.85,40.38 -11.85,63.45 0,22.64 3.95,43.57 11.85,62.8 7.91,19.22 19.12,35.99 33.65,50.3 14.53,14.31 31.62,25.32 51.26,33.01 19.65,7.69 41.45,11.53 65.36,11.53 22.22,0 43.69,-3.53 64.41,-10.58 20.72,-7.05 40.48,-18.91 59.28,-35.56l47.42 62.16c-23.5,18.8 -50.73,33 -81.7,42.61 -30.98,9.61 -62.27,14.42 -93.89,14.42zm175.59 -57.04l-78.82 -10.9 0 -167.9 78.82 0 0 178.8z"/>
    <path id="_11" class="fil1" d="M6155.31 2206.34l0 -448.58 183.92 0c59.81,0 106.69,14.1 140.66,42.29 33.97,28.19 50.95,67.29 50.95,117.28 0,32.9 -7.69,61.2 -23.07,84.91 -15.38,23.71 -37.28,41.87 -65.69,54.47 -28.4,12.6 -62.48,18.91 -102.21,18.91l-138.42 0 37.16 -37.81 0 168.54 -83.3 0zm293.5 0l-113.42 -162.77 89.07 0 114.07 162.77 -89.72 0zm-210.19 -159.57l-37.16 -39.73 134.57 0c36.74,0 64.41,-7.9 82.98,-23.71 18.59,-15.81 27.88,-37.81 27.88,-66 0,-28.62 -9.3,-50.63 -27.88,-66.01 -18.58,-15.38 -46.24,-23.07 -82.98,-23.07l-134.57 0 37.16 -41.01 0 259.53z"/>
    <path id="_12" class="fil1" d="M6623.76 2206.34l0 -448.58 327.46 0 0 69.85 -244.16 0 0 308.89 253.13 0 0 69.85 -336.43 0zm76.9 -193.53l0 -68.57 223.01 0 0 68.57 -223.01 0z"/>
    <path id="_13" class="fil1" d="M7053.12 2206.34l0 -448.58 196.09 0c48.7,0 91.42,9.4 128.16,28.19 36.74,18.81 65.36,44.86 85.88,78.19 20.5,33.33 30.76,72.62 30.76,117.92 0,44.85 -10.26,84.05 -30.76,117.59 -20.51,33.54 -49.14,59.7 -85.88,78.51 -36.74,18.8 -79.47,28.19 -128.16,28.19l-196.09 0zm83.3 -70.49l108.95 0c33.32,0 62.37,-6.41 87.16,-19.22 24.78,-12.82 43.89,-30.76 57.34,-53.83 13.46,-23.07 20.19,-49.98 20.19,-80.74 0,-31.19 -6.73,-58.21 -20.19,-81.07 -13.45,-22.85 -32.57,-40.69 -57.34,-53.51 -24.79,-12.81 -53.84,-19.22 -87.16,-19.22l-108.95 0 0 307.61z"/>
    <path id="_14" class="fil1" d="M7582.44 2206.34l0 -448.58 327.46 0 0 69.85 -244.16 0 0 308.89 253.13 0 0 69.85 -336.43 0zm76.9 -193.53l0 -68.57 223.01 0 0 68.57 -223.01 0z"/>
    <path id="_15" class="fil1" d="M8011.8 2206.34l0 -448.58 327.46 0 0 69.85 -244.16 0 0 378.73 -83.3 0zm76.26 -171.75l0 -70.49 223.65 0 0 70.49 -223.65 0z"/>
    <polygon id="_16" class="fil1" points="8420.01,2206.34 8420.01,1757.76 8503.31,1757.76 8503.31,2206.34 "/>
    <polygon id="_17" class="fil1" points="8624.43,2206.34 8624.43,1757.76 8693,1757.76 8974.32,2103.17 8940.36,2103.17 8940.36,1757.76 9023.03,1757.76 9023.03,2206.34 8954.46,2206.34 8673.13,1860.93 8707.09,1860.93 8707.09,2206.34 "/>
    <path id="_18" class="fil1" d="M9143.5 2206.34l0 -448.58 327.46 0 0 69.85 -244.16 0 0 308.89 253.13 0 0 69.85 -336.43 0zm76.9 -193.53l0 -68.57 223.01 0 0 68.57 -223.01 0z"/>
    <path id="_19" class="fil1" d="M9572.86 2206.34l0 -448.58 196.09 0c48.7,0 91.42,9.4 128.16,28.19 36.74,18.81 65.36,44.86 85.88,78.19 20.5,33.33 30.76,72.62 30.76,117.92 0,44.85 -10.26,84.05 -30.76,117.59 -20.51,33.54 -49.14,59.7 -85.88,78.51 -36.74,18.8 -79.47,28.19 -128.16,28.19l-196.09 0zm83.3 -70.49l108.95 0c33.32,0 62.37,-6.41 87.16,-19.22 24.78,-12.82 43.89,-30.76 57.34,-53.83 13.46,-23.07 20.19,-49.98 20.19,-80.74 0,-31.19 -6.73,-58.21 -20.19,-81.07 -13.45,-22.85 -32.57,-40.69 -57.34,-53.51 -24.79,-12.81 -53.84,-19.22 -87.16,-19.22l-108.95 0 0 307.61z"/>
    <g>
     <line class="fil2 str0" x1="226.42" y1="2022.05" x2="779.48" y2="2022.05"/>
     <line class="fil2 str0" x1="10098.86" y1="2022.05" x2="10651.92" y2="2022.05"/>
    </g>
   </g>
  </g>
 </g>
</svg>