<?xml version="1.0"?>
<svg fill="white" xmlns="http://www.w3.org/2000/svg" id="Line" viewBox="0 0 64 64"><path
        d="M58.13,32.9c.95-1.66,1.93-3.37,1.64-5.25S58,24.47,56.6,23.19a13.77,13.77,0,0,1-2-2.09l3.83-3.86a3.41,3.41,0,0,0-.09-4.81l-6.9-6.95a3.46,3.46,0,0,0-4.79-.09L42.82,9.25a14.19,14.19,0,0,1-2.06-2c-1.27-1.42-2.59-2.89-4.44-3.2s-3.57.7-5.22,1.65A10,10,0,0,1,28,7.09a10,10,0,0,1-3.32-.38c-1.88-.41-3.83-.84-5.52,0S16.74,9.36,16,11.08a10.47,10.47,0,0,1-1.74,3.05,10.59,10.59,0,0,1-3,1.75c-1.71.77-3.48,1.56-4.3,3.2s-.45,3.67,0,5.56A10.15,10.15,0,0,1,7.25,28,10.12,10.12,0,0,1,5.87,31.1c-1,1.66-1.93,3.37-1.64,5.25S6,39.53,7.4,40.81a13.84,13.84,0,0,1,2,2.09L5.57,46.76a3.41,3.41,0,0,0,.09,4.81l6.9,7a3.49,3.49,0,0,0,2.48,1,3.24,3.24,0,0,0,2.31-1l3.83-3.86a14.19,14.19,0,0,1,2.06,2c1.27,1.42,2.59,2.89,4.44,3.2a5.19,5.19,0,0,0,.68,0,9.49,9.49,0,0,0,4.54-1.7A10,10,0,0,1,36,56.91a9.73,9.73,0,0,1,3.32.38c1.88.41,3.83.84,5.52,0s2.43-2.61,3.19-4.33a10.47,10.47,0,0,1,1.74-3.05,10.59,10.59,0,0,1,3-1.75c1.71-.77,3.48-1.56,4.3-3.2s.45-3.67,0-5.56A10.15,10.15,0,0,1,56.75,36,10.12,10.12,0,0,1,58.13,32.9ZM8.75,39.33C7.54,38.23,6.39,37.19,6.21,36s.58-2.52,1.39-3.94a11.45,11.45,0,0,0,1.62-3.81,11.62,11.62,0,0,0-.39-4.07c-.35-1.62-.69-3.16-.14-4.24s1.88-1.62,3.34-2.27a11.79,11.79,0,0,0,3.62-2.17,11.91,11.91,0,0,0,2.16-3.65c.65-1.47,1.26-2.85,2.27-3.36s2.58-.22,4.18.14a11.58,11.58,0,0,0,4.06.4A11.56,11.56,0,0,0,32.1,7.43C33.51,6.61,34.85,5.84,36,6s2.18,1.34,3.27,2.55a17.5,17.5,0,0,0,2.12,2.1L37,15.08a17.42,17.42,0,0,0-5-.78h0a1,1,0,0,0-1,1,1,1,0,0,0,1,1,15.07,15.07,0,0,1,3.41.41L16.81,35.44a15.64,15.64,0,0,1,7.45-17.13A1,1,0,0,0,24.64,17a1,1,0,0,0-1.37-.38,17.42,17.42,0,0,0-3.75,2.88,17.61,17.61,0,0,0-4.34,17.63l-4.35,4.38A18.17,18.17,0,0,0,8.75,39.33ZM15.93,57.2A1.41,1.41,0,0,1,14,57.11l-6.91-7a1.42,1.42,0,0,1-.09-2L48.07,6.8A1.25,1.25,0,0,1,49,6.44,1.5,1.5,0,0,1,50,6.89l6.91,7a1.42,1.42,0,0,1,.09,2h0ZM56.4,31.9a11.45,11.45,0,0,0-1.62,3.81,11.62,11.62,0,0,0,.39,4.07c.35,1.62.69,3.16.14,4.24S53.43,45.64,52,46.29a12,12,0,0,0-3.62,2.17,11.91,11.91,0,0,0-2.16,3.65c-.65,1.47-1.26,2.85-2.27,3.36s-2.58.22-4.18-.14a11.58,11.58,0,0,0-4.06-.4,11.56,11.56,0,0,0-3.78,1.64c-1.41.81-2.76,1.58-3.9,1.4s-2.18-1.34-3.27-2.55a16.9,16.9,0,0,0-2.13-2.1L27,48.92a17.49,17.49,0,0,0,5,.78h0a1,1,0,0,0,0-2,15.09,15.09,0,0,1-3.42-.41l18.6-18.73a15.59,15.59,0,0,1-4.13,14.58A15,15,0,0,1,41,44.89a1,1,0,0,0,.58,1.82,1,1,0,0,0,.57-.18,17.65,17.65,0,0,0,6.68-19.61l4.35-4.38a18.17,18.17,0,0,0,2.08,2.13c1.21,1.1,2.36,2.14,2.54,3.29S57.21,30.48,56.4,31.9Z"/><path d="M19.21,48.06h0a1,1,0,0,0-1,1,2.4,2.4,0,0,1-.71,1.77,2.89,2.89,0,0,1-4.07-.29,3.27,3.27,0,0,1-1-2.3,2.43,2.43,0,0,1,2.47-2.48h0a1,1,0,0,0,0-2,4.34,4.34,0,0,0-3.21,1.3,4.46,4.46,0,0,0-1.29,3.18,5.38,5.38,0,0,0,5.3,5.29,4.39,4.39,0,0,0,4.48-4.49A1,1,0,0,0,19.21,48.06Z"/><path d="M24.06,44.29,22.34,46l-1.47-1.47,1.71-1.72a1,1,0,0,0-1.41-1.42l-1.72,1.72L18,41.65l1.71-1.72a1,1,0,0,0-1.41-1.41l-2.43,2.42a1,1,0,0,0-.29.71,1,1,0,0,0,.29.7l5.79,5.78a1,1,0,0,0,.7.29,1,1,0,0,0,.71-.29l2.43-2.42a1,1,0,0,0-1.42-1.42Z"/><path d="M48,20.43l-1.72,1.71-1.47-1.47L46.48,19a1,1,0,0,0,0-1.41,1,1,0,0,0-1.42,0l-1.72,1.72-1.47-1.48,1.71-1.71a1,1,0,1,0-1.41-1.42l-2.43,2.42a1.05,1.05,0,0,0-.29.71,1,1,0,0,0,.29.71l5.79,5.77a1,1,0,0,0,1.41,0l2.43-2.42a1,1,0,0,0,0-1.41A1,1,0,0,0,48,20.43Z"/><path d="M30,38.78l-3.73-.11.1-.09a2.6,2.6,0,0,0,.75-1.86,3,3,0,0,0-.88-2.09,2.8,2.8,0,0,0-4-.14l-1.74,1.74a1,1,0,0,0,0,1.42l5.78,5.77a1,1,0,0,0,1.41,0,1,1,0,0,0,0-1.41l-1.33-1.33,3.54.1a1,1,0,1,0,.05-2ZM25,37.16l-1,1-1.25-1.25,1-1a.82.82,0,0,1,1.12.13,1,1,0,0,1,.3.68A.6.6,0,0,1,25,37.16Z"/><path d="M29,30.6l.87-.87a1,1,0,1,0-1.41-1.41l-3.16,3.15a1,1,0,0,0,0,1.42,1,1,0,0,0,.71.29,1,1,0,0,0,.71-.29l.87-.87,5.07,5.07a1,1,0,0,0,.71.29,1,1,0,0,0,.71-.3,1,1,0,0,0,0-1.41Z"/><path d="M32.05,26.17a1,1,0,0,0-1.41,1.41l5.78,5.78a1,1,0,0,0,.71.29,1,1,0,0,0,.71-.29,1,1,0,0,0,0-1.42Z"/><path d="M38.94,19.29a1,1,0,1,0-1.41,1.41l5.78,5.78a1,1,0,1,0,1.41-1.42Z"/><path d="M38.05,27.1l1.6-1.59a1,1,0,0,0,0-1.42,1,1,0,0,0-1.41,0l-1.6,1.6-1.35-1.34,1.6-1.6a1,1,0,1,0-1.41-1.41l-2.31,2.3a1,1,0,0,0-.29.71,1,1,0,0,0,.29.7L39,30.83a1,1,0,0,0,1.42,0,1,1,0,0,0,0-1.41Z"/><path d="M45.08,11.74l-.8.8a1,1,0,0,0-.29.71,1,1,0,0,0,.29.71l5.78,5.77a1,1,0,0,0,.71.3,1,1,0,0,0,.71-.3l.8-.8a4.46,4.46,0,0,0,1.29-3.18A5.35,5.35,0,0,0,52,12,4.91,4.91,0,0,0,45.08,11.74Zm5.78,5.78-.09.09L46.4,13.25l.1-.09a2.9,2.9,0,0,1,4.07.29,3.27,3.27,0,0,1,1,2.3A2.46,2.46,0,0,1,50.86,17.52Z"/></svg>
