<svg width="48" height="48" viewBox="0 0 48 48" fill="none" xmlns="http://www.w3.org/2000/svg">
  <g clip-path="url(#clip0_3913_34136)">
    <path d="M14.4186 20.5201C14.4186 21.0617 14.477 21.5008 14.5793 21.8228C14.6961 22.1449 14.8422 22.4962 15.0466 22.8767C15.1197 22.9938 15.1489 23.1109 15.1489 23.2134C15.1489 23.3598 15.0612 23.5061 14.8714 23.6525L13.9512 24.2673C13.8198 24.3551 13.6883 24.399 13.5715 24.399C13.4255 24.399 13.2794 24.3258 13.1333 24.1941C12.9289 23.9745 12.7536 23.7403 12.6076 23.5061C12.4615 23.2573 12.3155 22.9792 12.1548 22.6425C11.0156 23.9892 9.58427 24.6625 7.86085 24.6625C6.63401 24.6625 5.65546 24.3112 4.9398 23.6086C4.22414 22.906 3.85901 21.9692 3.85901 20.7982C3.85901 19.554 4.29717 18.5441 5.18809 17.7829C6.07901 17.0218 7.26203 16.6412 8.76638 16.6412C9.26296 16.6412 9.77414 16.6851 10.3145 16.7583C10.8549 16.8315 11.4099 16.9486 11.9941 17.0803V16.0118C11.9941 14.8994 11.7605 14.1236 11.3077 13.6698C10.8403 13.2161 10.0516 12.9965 8.92703 12.9965C8.41585 12.9965 7.89006 13.0551 7.34967 13.1868C6.80927 13.3185 6.28348 13.4795 5.7723 13.6845C5.53861 13.7869 5.36335 13.8455 5.26111 13.8747C5.15888 13.904 5.08585 13.9187 5.02743 13.9187C4.82296 13.9187 4.72072 13.7723 4.72072 13.4649V12.7477C4.72072 12.5135 4.74993 12.3378 4.82296 12.2354C4.89598 12.1329 5.02743 12.0304 5.2319 11.928C5.74309 11.6645 6.35651 11.4449 7.07217 11.2693C7.78782 11.079 8.5473 10.9912 9.35059 10.9912C11.0886 10.9912 12.3593 11.3864 13.1772 12.1768C13.9805 12.9672 14.3894 14.1675 14.3894 15.7776V20.5201H14.4186ZM8.48888 22.745C8.97085 22.745 9.46743 22.6572 9.99322 22.4815C10.519 22.3059 10.9864 21.9838 11.3807 21.5447C11.6144 21.2666 11.7897 20.9592 11.8773 20.6079C11.9649 20.2566 12.0233 19.8322 12.0233 19.3345V18.7197C11.5998 18.6173 11.147 18.5294 10.6797 18.4709C10.2123 18.4123 9.75953 18.3831 9.30677 18.3831C8.32822 18.3831 7.61256 18.5733 7.13059 18.9685C6.64861 19.3638 6.41493 19.92 6.41493 20.6518C6.41493 21.3398 6.59019 21.8521 6.95532 22.2034C7.30585 22.5693 7.81703 22.745 8.48888 22.745ZM20.2169 24.3258C19.954 24.3258 19.7787 24.2819 19.6619 24.1795C19.5451 24.0916 19.4428 23.8867 19.3552 23.6086L15.923 12.2939C15.8353 12.0012 15.7915 11.8109 15.7915 11.7084C15.7915 11.4742 15.9083 11.3425 16.142 11.3425H17.5733C17.8508 11.3425 18.0407 11.3864 18.143 11.4889C18.2598 11.5767 18.3474 11.7816 18.4351 12.0597L20.8887 21.7496L23.1672 12.0597C23.2402 11.767 23.3278 11.5767 23.4447 11.4889C23.5615 11.401 23.766 11.3425 24.0289 11.3425H25.1973C25.4748 11.3425 25.6647 11.3864 25.7815 11.4889C25.8983 11.5767 26.0006 11.7816 26.059 12.0597L28.3666 21.8667L30.8933 12.0597C30.981 11.767 31.0832 11.5767 31.1855 11.4889C31.3023 11.401 31.4922 11.3425 31.7551 11.3425H33.1133C33.347 11.3425 33.4785 11.4596 33.4785 11.7084C33.4785 11.7816 33.4639 11.8548 33.4493 11.9426C33.4347 12.0304 33.4055 12.1475 33.347 12.3086L29.8272 23.6232C29.7395 23.916 29.6373 24.1063 29.5205 24.1941C29.4036 24.2819 29.2137 24.3405 28.9655 24.3405H27.7094C27.4319 24.3405 27.242 24.2965 27.1252 24.1941C27.0083 24.0916 26.9061 23.9013 26.8477 23.6086L24.5839 14.1675L22.3347 23.594C22.2616 23.8867 22.174 24.077 22.0572 24.1795C21.9403 24.2819 21.7358 24.3258 21.473 24.3258H20.2169ZM38.9847 24.721C38.2252 24.721 37.4657 24.6332 36.7355 24.4576C36.0052 24.2819 35.4356 24.0916 35.0558 23.8721C34.8222 23.7403 34.6615 23.594 34.6031 23.4622C34.5447 23.3305 34.5155 23.1841 34.5155 23.0524V22.3059C34.5155 21.9985 34.6323 21.8521 34.8514 21.8521C34.939 21.8521 35.0266 21.8667 35.1143 21.896C35.2019 21.9253 35.3333 21.9838 35.4794 22.0424C35.976 22.262 36.5164 22.4376 37.086 22.5547C37.6702 22.6718 38.2398 22.7304 38.824 22.7304C39.7441 22.7304 40.4598 22.5693 40.9564 22.2473C41.453 21.9253 41.7158 21.4569 41.7158 20.8568C41.7158 20.4469 41.5844 20.1103 41.3215 19.8322C41.0586 19.554 40.562 19.3052 39.8464 19.071L37.7286 18.4123C36.6624 18.0757 35.8737 17.578 35.3918 16.9193C34.9098 16.2753 34.6615 15.558 34.6615 14.7969C34.6615 14.1821 34.793 13.6406 35.0558 13.1722C35.3187 12.7038 35.6693 12.2939 36.1074 11.9719C36.5456 11.6352 37.0422 11.3864 37.6264 11.2107C38.2106 11.0351 38.824 10.9619 39.4666 10.9619C39.7879 10.9619 40.1239 10.9766 40.4452 11.0205C40.7811 11.0644 41.0878 11.1229 41.3945 11.1815C41.6866 11.2547 41.9641 11.3278 42.227 11.4157C42.4899 11.5035 42.6944 11.5913 42.8405 11.6791C43.0449 11.7962 43.191 11.9133 43.2786 12.0451C43.3662 12.1622 43.4101 12.3232 43.4101 12.5281V13.2161C43.4101 13.5235 43.2932 13.6845 43.0741 13.6845C42.9573 13.6845 42.7674 13.6259 42.5191 13.5088C41.6866 13.1282 40.7519 12.938 39.7149 12.938C38.8824 12.938 38.2252 13.0697 37.7724 13.3478C37.3197 13.6259 37.086 14.0504 37.086 14.6505C37.086 15.0604 37.232 15.4117 37.5241 15.6898C37.8162 15.9679 38.3566 16.246 39.1307 16.4948L41.2047 17.1535C42.2562 17.4902 43.0157 17.9586 43.4685 18.5587C43.9212 19.1588 44.1403 19.8468 44.1403 20.6079C44.1403 21.2373 44.0089 21.8082 43.7606 22.3059C43.4977 22.8035 43.1472 23.2427 42.6944 23.594C42.2416 23.9599 41.7012 24.2234 41.0732 24.4136C40.416 24.6186 39.7295 24.721 38.9847 24.721Z" fill="#252F3E"/>
    <path fill-rule="evenodd" clip-rule="evenodd" d="M41.7454 31.8342C36.9402 35.3911 29.9589 37.2793 23.9562 37.2793C15.5435 37.2793 7.96339 34.1616 2.23812 28.98C1.78536 28.5701 2.19431 28.0139 2.7347 28.3359C8.92733 31.9367 16.5659 34.1177 24.4673 34.1177C29.7983 34.1177 35.655 33.0052 41.0443 30.7218C41.8476 30.3559 42.534 31.2488 41.7454 31.8342Z" fill="#FF9900"/>
    <path fill-rule="evenodd" clip-rule="evenodd" d="M43.7465 29.5503C43.1331 28.7598 39.6862 29.1697 38.1235 29.36C37.6561 29.4185 37.5831 29.0087 38.0066 28.7013C40.7524 26.7692 45.2654 27.3254 45.7912 27.9694C46.317 28.6281 45.6452 33.1511 43.0747 35.3174C42.6803 35.654 42.3006 35.4784 42.4758 35.0393C43.06 33.5902 44.3599 30.326 43.7465 29.5503Z" fill="#FF9900"/>
  </g>
  <defs>
    <clipPath id="clip0_3913_34136">
      <rect width="44.4" height="26.64" fill="white" transform="translate(1.79999 10.7998)"/>
    </clipPath>
  </defs>
</svg>
