<svg width="48" height="48" viewBox="0 0 48 48" fill="none" xmlns="http://www.w3.org/2000/svg">
  <path fill-rule="evenodd" clip-rule="evenodd" d="M30.4791 31.6977H17.4973C16.1616 31.6977 15.0602 30.5963 15.0602 29.2606V18.7393C15.0602 17.3802 16.1616 16.2788 17.4973 16.2788H30.4791C31.8382 16.2788 32.9396 17.3802 32.9396 18.7393V29.2606C32.9396 30.5963 31.8382 31.6977 30.4791 31.6977ZM17.9425 26.8236C17.8956 26.8236 17.8488 26.8236 17.8019 26.8002C17.591 26.7299 17.4973 26.4956 17.591 26.2847L18.4346 24.1757V24.1523L19.9577 20.3561V20.3327C19.9812 20.2858 20.0046 20.239 20.0515 20.2155C20.0749 20.1687 20.1218 20.1452 20.1686 20.1218H20.1921C20.2389 20.0984 20.2624 20.0984 20.3092 20.0984C20.3561 20.0984 20.4029 20.0984 20.4498 20.1218H20.4732C20.5201 20.1452 20.567 20.1687 20.5904 20.2155C20.6373 20.239 20.6607 20.2858 20.6841 20.3327V20.3561L22.2073 24.1523V24.1757L23.0509 26.2847C23.1212 26.4956 23.0274 26.7299 22.84 26.8002C22.6291 26.8705 22.3947 26.7768 22.3244 26.5893L21.5746 24.7147H19.0673L18.3174 26.5893C18.2471 26.7299 18.1065 26.8236 17.9425 26.8236ZM26.8704 26.8471H24.7849C24.574 26.8471 24.41 26.683 24.41 26.4721C24.41 26.2378 24.574 26.0738 24.7849 26.0738H26.4721V20.8482H24.7849C24.574 20.8482 24.41 20.6842 24.41 20.4733C24.41 20.239 24.574 20.0749 24.7849 20.0749H28.9325C29.1434 20.0749 29.3309 20.239 29.3309 20.4733C29.3309 20.6842 29.1434 20.8482 28.9325 20.8482H27.2454V26.0738H28.9325C29.1434 26.0738 29.3309 26.2378 29.3309 26.4721C29.3309 26.683 29.1434 26.8471 28.9325 26.8471H26.8704ZM21.27 23.9179L20.3092 21.5512L19.3719 23.9179H21.27Z" fill="black"/>
  <path fill-rule="evenodd" clip-rule="evenodd" d="M21.9261 17.0758C21.7152 17.0758 21.5277 16.8883 21.5277 16.6774V7.84318C21.5277 7.63229 21.7152 7.44482 21.9261 7.44482C22.137 7.44482 22.301 7.63229 22.301 7.84318V16.6774C22.301 16.8883 22.137 17.0758 21.9261 17.0758Z" fill="black"/>
  <path fill-rule="evenodd" clip-rule="evenodd" d="M21.9261 8.24136C20.7545 8.24136 19.7937 7.28061 19.7937 6.10896C19.7937 4.96075 20.7545 4 21.9261 4C23.0977 4 24.0351 4.96075 24.0351 6.10896C24.0351 7.28061 23.0977 8.24136 21.9261 8.24136ZM26.0737 17.0756C25.8628 17.0756 25.6754 16.8881 25.6754 16.6772V13.0217C25.6754 12.8108 25.8628 12.6233 26.0737 12.6233C26.2846 12.6233 26.4721 12.8108 26.4721 13.0217V16.6772C26.4721 16.8881 26.2846 17.0756 26.0737 17.0756Z" fill="black"/>
  <path fill-rule="evenodd" clip-rule="evenodd" d="M26.0737 13.42C24.902 13.42 23.9647 12.4593 23.9647 11.2876C23.9647 10.1394 24.902 9.17865 26.0737 9.17865C27.2453 9.17865 28.1826 10.1394 28.1826 11.2876C28.1826 12.4593 27.2453 13.42 26.0737 13.42ZM30.2213 17.0755C30.0104 17.0755 29.823 16.8881 29.823 16.6772V10.9596C29.823 9.81134 30.7603 8.87402 31.9085 8.87402H34.3924C34.6033 8.87402 34.7907 9.06149 34.7907 9.27238C34.7907 9.48328 34.6033 9.67074 34.3924 9.67074H31.9085C31.2055 9.67074 30.6197 10.2331 30.6197 10.9596V16.6772C30.6197 16.8881 30.4322 17.0755 30.2213 17.0755Z" fill="black"/>
  <path fill-rule="evenodd" clip-rule="evenodd" d="M36.1264 11.3815C34.9548 11.3815 33.9941 10.4442 33.9941 9.27254C33.9941 8.10089 34.9548 7.16357 36.1264 7.16357C37.2981 7.16357 38.2354 8.10089 38.2354 9.27254C38.2354 10.4442 37.2981 11.3815 36.1264 11.3815ZM17.7785 17.0757C17.5441 17.0757 17.3801 16.8882 17.3801 16.6773V10.9597C17.3801 10.2333 16.7943 9.6709 16.0913 9.6709H13.6074C13.3731 9.6709 13.209 9.48343 13.209 9.27254C13.209 9.06164 13.3731 8.87418 13.6074 8.87418H16.0913C17.2395 8.87418 18.1534 9.81149 18.1534 10.9597V16.6773C18.1534 16.8882 17.9894 17.0757 17.7785 17.0757Z" fill="black"/>
  <path fill-rule="evenodd" clip-rule="evenodd" d="M11.8734 11.3815C10.7017 11.3815 9.7644 10.4442 9.7644 9.27254C9.7644 8.10089 10.7017 7.16357 11.8734 7.16357C13.045 7.16357 13.9823 8.10089 13.9823 9.27254C13.9823 10.4442 13.045 11.3815 11.8734 11.3815ZM39.8991 20.1454H32.5412C32.3303 20.1454 32.1428 19.9579 32.1428 19.7471C32.1428 19.5362 32.3303 19.3721 32.5412 19.3721H39.8991C40.11 19.3721 40.2741 19.5362 40.2741 19.7471C40.2741 19.9579 40.11 20.1454 39.8991 20.1454Z" fill="black"/>
  <path fill-rule="evenodd" clip-rule="evenodd" d="M41.6097 21.8795C40.4615 21.8795 39.5008 20.9188 39.5008 19.7471C39.5008 18.5755 40.4615 17.6382 41.6097 17.6382C42.7814 17.6382 43.7421 18.5755 43.7421 19.7471C43.7421 20.9188 42.7814 21.8795 41.6097 21.8795ZM34.7439 24.3869H32.5412C32.3303 24.3869 32.1428 24.2228 32.1428 23.9885C32.1428 23.7776 32.3303 23.6136 32.5412 23.6136H34.7439C34.9548 23.6136 35.1188 23.7776 35.1188 23.9885C35.1188 24.2228 34.9548 24.3869 34.7439 24.3869Z" fill="black"/>
  <path fill-rule="evenodd" clip-rule="evenodd" d="M36.4545 26.1208C35.3063 26.1208 34.3455 25.16 34.3455 23.9884C34.3455 22.8401 35.3063 21.8794 36.4545 21.8794C37.6261 21.8794 38.5869 22.8401 38.5869 23.9884C38.5869 25.16 37.6261 26.1208 36.4545 26.1208ZM39.8991 28.6046H32.5412C32.3303 28.6046 32.1428 28.4406 32.1428 28.2063C32.1428 27.9954 32.3303 27.8314 32.5412 27.8314H39.8991C40.11 27.8314 40.274 27.9954 40.274 28.2063C40.274 28.4406 40.11 28.6046 39.8991 28.6046Z" fill="black"/>
  <path fill-rule="evenodd" clip-rule="evenodd" d="M41.6097 30.3385C40.4615 30.3385 39.5008 29.3778 39.5008 28.2061C39.5008 27.0579 40.4615 26.0972 41.6097 26.0972C42.7814 26.0972 43.7421 27.0579 43.7421 28.2061C43.7421 29.3778 42.7814 30.3385 41.6097 30.3385ZM21.9261 40.5319C21.7152 40.5319 21.5277 40.3678 21.5277 40.1569V31.3227C21.5277 31.0884 21.7152 30.9244 21.9261 30.9244C22.137 30.9244 22.301 31.0884 22.301 31.3227V40.1569C22.301 40.3678 22.137 40.5319 21.9261 40.5319Z" fill="black"/>
  <path fill-rule="evenodd" clip-rule="evenodd" d="M21.9261 43.9999C20.7545 43.9999 19.7937 43.0391 19.7937 41.8675C19.7937 40.6958 20.7545 39.7585 21.9261 39.7585C23.0977 39.7585 24.0351 40.6958 24.0351 41.8675C24.0351 43.0391 23.0977 43.9999 21.9261 43.9999ZM26.0737 35.3531C25.8628 35.3531 25.6754 35.1891 25.6754 34.9782V31.3227C25.6754 31.0883 25.8628 30.9243 26.0737 30.9243C26.2846 30.9243 26.4721 31.0883 26.4721 31.3227V34.9782C26.4721 35.1891 26.2846 35.3531 26.0737 35.3531Z" fill="black"/>
  <path fill-rule="evenodd" clip-rule="evenodd" d="M26.0737 38.8212C24.902 38.8212 23.9647 37.8605 23.9647 36.6888C23.9647 35.5172 24.902 34.5799 26.0737 34.5799C27.2453 34.5799 28.1826 35.5172 28.1826 36.6888C28.1826 37.8605 27.2453 38.8212 26.0737 38.8212ZM34.3924 39.1024H31.9085C30.7603 39.1024 29.823 38.1885 29.823 37.0403V31.3227C29.823 31.0883 30.0104 30.9243 30.2213 30.9243C30.4322 30.9243 30.6197 31.0883 30.6197 31.3227V37.0403C30.6197 37.7433 31.2055 38.3291 31.9085 38.3291H34.3924C34.6033 38.3291 34.7907 38.4931 34.7907 38.7275C34.7907 38.9384 34.6033 39.1024 34.3924 39.1024Z" fill="black"/>
  <path fill-rule="evenodd" clip-rule="evenodd" d="M36.1264 40.8364C34.9548 40.8364 33.9941 39.8757 33.9941 38.7275C33.9941 37.5558 34.9548 36.5951 36.1264 36.5951C37.2981 36.5951 38.2354 37.5558 38.2354 38.7275C38.2354 39.8757 37.2981 40.8364 36.1264 40.8364ZM16.0913 39.1024H13.6074C13.3731 39.1024 13.209 38.9384 13.209 38.7275C13.209 38.4931 13.3731 38.3291 13.6074 38.3291H16.0913C16.7943 38.3291 17.3801 37.7433 17.3801 37.0403V31.3227C17.3801 31.0883 17.5441 30.9243 17.7785 30.9243C17.9894 30.9243 18.1534 31.0883 18.1534 31.3227V37.0403C18.1534 38.1885 17.2395 39.1024 16.0913 39.1024Z" fill="black"/>
  <path fill-rule="evenodd" clip-rule="evenodd" d="M11.8733 40.8366C10.7017 40.8366 9.76437 39.8759 9.76437 38.7277C9.76437 37.556 10.7017 36.5953 11.8733 36.5953C13.045 36.5953 13.9823 37.556 13.9823 38.7277C13.9823 39.8759 13.045 40.8366 11.8733 40.8366ZM15.4586 20.1454H8.10063C7.88973 20.1454 7.70227 19.9813 7.70227 19.7704C7.70227 19.5361 7.88973 19.3721 8.10063 19.3721H15.4586C15.6695 19.3721 15.8335 19.5361 15.8335 19.7704C15.8335 19.9813 15.6695 20.1454 15.4586 20.1454Z" fill="black"/>
  <path fill-rule="evenodd" clip-rule="evenodd" d="M6.36659 21.8795C5.21838 21.8795 4.25763 20.9422 4.25763 19.7706C4.25763 18.5989 5.21838 17.6382 6.36659 17.6382C7.53824 17.6382 8.49899 18.5989 8.49899 19.7706C8.49899 20.9422 7.53824 21.8795 6.36659 21.8795ZM15.4586 24.3869H13.2559C13.045 24.3869 12.8575 24.2228 12.8575 24.0119C12.8575 23.801 13.045 23.6136 13.2559 23.6136H15.4586C15.6695 23.6136 15.8335 23.801 15.8335 24.0119C15.8335 24.2228 15.6695 24.3869 15.4586 24.3869Z" fill="black"/>
  <path fill-rule="evenodd" clip-rule="evenodd" d="M11.5218 26.1208C10.3502 26.1208 9.41287 25.1834 9.41287 24.0118C9.41287 22.8401 10.3502 21.8794 11.5218 21.8794C12.6935 21.8794 13.6542 22.8401 13.6542 24.0118C13.6542 25.1834 12.6935 26.1208 11.5218 26.1208ZM15.4586 28.6281H8.10063C7.88973 28.6281 7.70227 28.4406 7.70227 28.2297C7.70227 28.0188 7.88973 27.8314 8.10063 27.8314H15.4586C15.6695 27.8314 15.8335 28.0188 15.8335 28.2297C15.8335 28.4406 15.6695 28.6281 15.4586 28.6281Z" fill="black"/>
  <path fill-rule="evenodd" clip-rule="evenodd" d="M6.36659 30.3385C5.21838 30.3385 4.25763 29.4012 4.25763 28.2296C4.25763 27.0579 5.21838 26.1206 6.36659 26.1206C7.53824 26.1206 8.49899 27.0579 8.49899 28.2296C8.49899 29.4012 7.53824 30.3385 6.36659 30.3385Z" fill="black"/>
</svg>
