<svg width="48" height="48" viewBox="0 0 48 48" fill="none" xmlns="http://www.w3.org/2000/svg">
  <path d="M22.3405 39.1413C28.0449 38.134 32.7564 37.3005 32.8105 37.289L32.9089 37.2681L27.5234 30.8647C24.5614 27.3429 22.1379 24.4477 22.1379 24.431C22.1379 24.3994 27.6989 9.0916 27.7301 9.03714C27.7406 9.01893 31.525 15.5501 36.9038 24.8691C41.9395 33.5937 46.0912 40.7872 46.1298 40.8546L46.2 40.9772L29.0845 40.975L11.969 40.9728L22.3405 39.1413ZM1.79999 37.1886C1.79999 37.1796 4.3376 32.7762 7.43913 27.4032L13.0783 17.6343L19.6501 12.1214C23.2645 9.08927 26.2316 6.60475 26.2434 6.60022C26.2553 6.59569 26.2078 6.71532 26.1378 6.86606C26.0678 7.0168 22.8566 13.9018 19.0018 22.1662L11.993 37.1922L6.89651 37.1986C4.09343 37.2021 1.79999 37.1976 1.79999 37.1886Z" fill="#0089D6"/>
</svg>
