<svg width="48" height="48" viewBox="0 0 48 48" fill="none" xmlns="http://www.w3.org/2000/svg">
  <g clip-path="url(#clip0_5086_14927)">
    <path d="M21.0302 5.24805L3.19312 11.5254L6.01185 34.8948L21.049 43.1595L36.1639 34.7828L38.9815 11.4142L21.0302 5.24805Z" fill="#B3B3B3"/>
    <path d="M37.2025 12.765L20.9886 7.23584V41.1851L34.5765 33.6649L37.2023 12.765H37.2025Z" fill="#A6120D"/>
    <path d="M5.1947 12.8647L7.61013 33.7649L20.9882 41.1852V7.23535L5.19484 12.8645L5.1947 12.8647Z" fill="#DD1B16"/>
    <path d="M25.4518 25.3082L20.9886 27.3953H16.2845L14.0732 32.9263L9.96033 33.0023L20.9886 8.46826L25.4518 25.3083V25.3082ZM25.0203 24.2574L21.0183 16.3346L17.7355 24.1211H20.9884L25.0203 24.2576V24.2574Z" fill="#F2F2F2"/>
    <path d="M20.9884 8.46875L21.018 16.3352L24.7428 24.1278H20.9969L20.9884 27.3909L26.1683 27.3959L28.5892 33.0038L32.5247 33.0767L20.9884 8.46875Z" fill="#B3B3B3"/>
  </g>
  <defs>
    <clipPath id="clip0_5086_14927">
      <rect width="36.5" height="38" fill="white" transform="translate(3.07367 5.2002)"/>
    </clipPath>
  </defs>
</svg>
