<svg width="48" height="48" viewBox="0 0 48 48" fill="none" xmlns="http://www.w3.org/2000/svg">
  <path d="M13.5587 17.1898H34.7554V34.4629C34.7554 35.489 33.9235 36.3209 32.8986 36.3209H30.7755V41.5815C30.7755 42.9173 29.71 44 28.3947 44C27.076 44 26.012 42.9173 26.012 41.5815V36.3209H22.3039V41.5815C22.3039 42.9173 21.2363 44 19.9211 44C18.6061 44 17.5385 42.9173 17.5385 41.5815V36.3209H15.4173C14.3922 36.3209 13.5587 35.489 13.5587 34.4629L13.5587 17.1898ZM9.40493 17.0489C8.07624 17.0489 7 18.1419 7 19.4911V29.0361C7 30.3838 8.07624 31.4787 9.40493 31.4787C10.7339 31.4787 11.8099 30.3838 11.8099 29.0361V19.4911C11.8099 18.1419 10.7339 17.0489 9.40493 17.0489ZM34.7555 15.4493H13.5587C13.8203 12.4295 15.7793 9.83079 18.5992 8.32613L16.5839 5.36692C16.3121 4.96786 16.4146 4.42336 16.8145 4.15165C17.2138 3.87995 17.7573 3.98328 18.0304 4.38203L20.2269 7.60958C21.4448 7.18844 22.7667 6.94664 24.1571 6.94664C25.5491 6.94664 26.8711 7.18844 28.0889 7.61012L30.2855 4.3832C30.5552 3.98336 31.1003 3.88003 31.4997 4.15173C31.8996 4.42343 32.0021 4.96793 31.7303 5.367L29.7166 8.32621C32.5365 9.82993 34.4941 12.4286 34.7555 15.4493ZM20.8589 11.346C20.8589 10.6984 20.3345 10.1732 19.6871 10.1732C19.0381 10.1732 18.5137 10.6984 18.5137 11.346C18.5137 11.9933 19.0398 12.5183 19.6871 12.5183C20.3344 12.5183 20.8589 11.9933 20.8589 11.346ZM29.949 11.346C29.949 10.6984 29.4228 10.1732 28.7756 10.1732C28.1266 10.1732 27.6038 10.6984 27.6038 11.346C27.6038 11.9933 28.1266 12.5183 28.7756 12.5183C29.4229 12.5183 29.949 11.9933 29.949 11.346ZM38.9109 17.0455C37.5836 17.0455 36.5043 18.1401 36.5043 19.4895V29.0378C36.5043 30.3872 37.5836 31.4821 38.9109 31.4821C40.2399 31.4821 41.3141 30.3873 41.3141 29.0378V19.4895C41.3142 18.1401 40.2399 17.0455 38.9109 17.0455Z" fill="#A4C639"/>
</svg>
