<svg width="48" height="48" viewBox="0 0 48 48" fill="none" xmlns="http://www.w3.org/2000/svg">
  <g clip-path="url(#clip0_5086_14902)">
    <mask id="mask0_5086_14902" style="mask-type:luminance" maskUnits="userSpaceOnUse" x="6" y="6" width="36" height="36">
      <path d="M41.5 6.5H6.5V41.5H41.5V6.5Z" fill="white"/>
    </mask>
    <g mask="url(#mask0_5086_14902)">
      <path d="M24 41.4995C33.665 41.4995 41.5 33.6645 41.5 23.9995C41.5 14.3346 33.665 6.49951 24 6.49951C14.335 6.49951 6.5 14.3346 6.5 23.9995C6.5 33.6645 14.335 41.4995 24 41.4995Z" fill="#5C2D91"/>
      <path opacity="0.1" d="M11.8704 11.4214C10.0914 13.0067 8.65486 14.9386 7.64889 17.0987C6.64292 19.2588 6.08869 21.6016 6.02018 23.9834C5.95166 26.3653 6.3703 28.7361 7.25043 30.9504C8.13056 33.1648 9.45364 35.176 11.1386 36.861C12.8235 38.5459 14.8348 39.869 17.0491 40.7491C19.2635 41.6293 21.6343 42.0479 24.0162 41.9794C26.398 41.9109 28.7408 41.3567 30.9009 40.3507C33.061 39.3447 34.9929 37.9082 36.5782 36.1292L11.8704 11.4214Z" fill="white"/>
      <path d="M10.5469 26.8707C10.4448 26.8723 10.3435 26.8527 10.2494 26.8131C10.1553 26.7736 10.0704 26.715 10 26.641C9.9278 26.5696 9.87069 26.4843 9.83217 26.3904C9.79364 26.2964 9.77448 26.1957 9.77582 26.0941C9.77509 25.9926 9.79454 25.892 9.83303 25.7981C9.87153 25.7043 9.9283 25.619 10 25.5472C10.0697 25.472 10.1543 25.4121 10.2485 25.3716C10.3427 25.3311 10.4444 25.3108 10.5469 25.3121C10.6493 25.3118 10.7507 25.3326 10.8447 25.373C10.9388 25.4134 11.0235 25.4728 11.0938 25.5472C11.1668 25.6183 11.2247 25.7034 11.2642 25.7973C11.3036 25.8912 11.3238 25.9922 11.3235 26.0941C11.3244 26.1961 11.3046 26.2972 11.2651 26.3912C11.2256 26.4853 11.1673 26.5702 11.0938 26.641C11.0229 26.7142 10.9379 26.7723 10.8439 26.8118C10.7499 26.8513 10.6489 26.8713 10.5469 26.8707Z" fill="white"/>
      <path d="M21.4134 26.7337H19.9806L14.8563 18.7821C14.7287 18.5862 14.6224 18.3772 14.5392 18.1587H14.4954C14.5441 18.6127 14.5623 19.0694 14.5501 19.5259V26.7337H13.3853V16.7642H14.9001L19.8876 24.5735C20.0954 24.898 20.2303 25.1204 20.2923 25.2407H20.3196C20.262 24.7544 20.2382 24.2647 20.2485 23.7751V16.7642H21.4134V26.7337Z" fill="white"/>
      <path d="M29.2992 26.7337H24V16.7642H29.0531V17.8196H25.1922V21.1337H28.7906V22.1837H25.1922V25.6399H29.3047L29.2992 26.7337Z" fill="white"/>
      <path d="M37.1251 17.8196H34.2266V26.7337H33.0618V17.8196H30.1962V16.7642H37.1251V17.8196Z" fill="white"/>
      <path d="M20.7844 33.5153C20.3896 33.7065 19.954 33.7985 19.5157 33.7833C19.2244 33.7964 18.9336 33.7471 18.6628 33.6386C18.3922 33.5301 18.1477 33.3651 17.9461 33.1544C17.5443 32.7046 17.3325 32.1165 17.3555 31.5138C17.3408 31.1875 17.3917 30.8615 17.5054 30.5552C17.6191 30.249 17.7932 29.9687 18.0172 29.731C18.2355 29.5073 18.4981 29.3315 18.7881 29.2147C19.078 29.098 19.3892 29.0428 19.7016 29.0528C20.0755 29.0401 20.448 29.1053 20.7954 29.2442V29.7911C20.4609 29.606 20.0838 29.5117 19.7016 29.5177C19.4606 29.5109 19.221 29.5563 18.9993 29.6506C18.7775 29.745 18.5786 29.8862 18.4164 30.0646C18.0753 30.4531 17.8989 30.9591 17.9243 31.4755C17.8987 31.9647 18.0633 32.4448 18.3836 32.8153C18.5373 32.9806 18.7248 33.1106 18.9334 33.1965C19.142 33.2824 19.3668 33.3221 19.5922 33.313C20.0121 33.324 20.4268 33.218 20.7899 33.0067L20.7844 33.5153Z" fill="#F2F2F2"/>
      <path d="M23.021 33.7836C22.8033 33.7906 22.5866 33.7508 22.3857 33.6669C22.1847 33.5829 22.0041 33.4567 21.8562 33.2969C21.5571 32.9632 21.4019 32.5249 21.4241 32.0774C21.4105 31.8429 21.4435 31.608 21.5215 31.3865C21.5994 31.1649 21.7206 30.961 21.878 30.7868C22.0387 30.6299 22.2298 30.5078 22.4396 30.4279C22.6494 30.3479 22.8733 30.3118 23.0976 30.3219C23.3095 30.3106 23.5214 30.3453 23.7188 30.4237C23.9161 30.502 24.0941 30.6222 24.2405 30.7758C24.5312 31.1261 24.6778 31.5737 24.6507 32.0282C24.6737 32.4893 24.5146 32.9409 24.2077 33.286C24.0569 33.4489 23.873 33.5776 23.6683 33.6635C23.4636 33.7493 23.2429 33.7903 23.021 33.7836ZM23.0593 30.7922C22.9089 30.7859 22.7589 30.8136 22.6207 30.8732C22.4824 30.9329 22.3594 31.0229 22.2609 31.1368C22.0504 31.4077 21.9455 31.7458 21.9655 32.0883C21.9464 32.4206 22.0517 32.7481 22.2609 33.0071C22.3605 33.1192 22.4838 33.2079 22.6219 33.2665C22.76 33.3251 22.9094 33.3523 23.0593 33.3461C23.2061 33.3547 23.3529 33.3297 23.4884 33.2728C23.624 33.216 23.7447 33.1288 23.8413 33.018C24.0402 32.7463 24.1369 32.4133 24.1148 32.0774C24.1363 31.7398 24.0397 31.4052 23.8413 31.1313C23.746 31.0182 23.6258 30.9287 23.4902 30.8699C23.3545 30.811 23.2069 30.7844 23.0593 30.7922Z" fill="#F2F2F2"/>
      <path d="M27.2047 30.9561C27.0866 30.8788 26.9464 30.8422 26.8055 30.8522C26.6953 30.8562 26.5879 30.8873 26.4925 30.9426C26.3971 30.9979 26.3168 31.0758 26.2586 31.1694C26.0959 31.4271 26.0175 31.7291 26.0344 32.0335V33.7069H25.4875V30.4257H26.0344V31.1093C26.0945 30.8977 26.2141 30.7079 26.379 30.5624C26.5216 30.4386 26.7042 30.3706 26.893 30.371C26.9987 30.3662 27.1044 30.381 27.2047 30.4147V30.9561Z" fill="#F2F2F2"/>
      <path d="M30.4094 32.2026H28.0961C28.0806 32.5083 28.1801 32.8088 28.375 33.0448C28.4764 33.1459 28.598 33.2245 28.7318 33.2754C28.8656 33.3263 29.0087 33.3483 29.1516 33.3401C29.5223 33.3365 29.8809 33.2073 30.1688 32.9737V33.4659C29.8307 33.6888 29.4303 33.798 29.0258 33.7776C28.8218 33.788 28.6179 33.7531 28.4288 33.6756C28.2398 33.5981 28.0702 33.4798 27.9321 33.3292C27.6474 32.9741 27.5051 32.5257 27.5328 32.0714C27.5132 31.616 27.6677 31.1701 27.9649 30.8245C28.1001 30.6683 28.2684 30.544 28.4576 30.4608C28.6468 30.3776 28.852 30.3374 29.0586 30.3432C29.2451 30.3328 29.4317 30.3648 29.604 30.4368C29.7764 30.5088 29.9303 30.6189 30.0539 30.7589C30.3058 31.0909 30.43 31.5024 30.4039 31.9182L30.4094 32.2026ZM29.8625 31.7596C29.8736 31.5063 29.7963 31.2569 29.6438 31.0542C29.569 30.9697 29.476 30.9031 29.3718 30.8596C29.2677 30.816 29.1549 30.7966 29.0422 30.8026C28.9245 30.8012 28.8079 30.8243 28.6996 30.8704C28.5913 30.9166 28.4938 30.9848 28.4133 31.0706C28.2333 31.261 28.1201 31.5048 28.0907 31.7651L29.8625 31.7596Z" fill="#F2F2F2"/>
    </g>
  </g>
  <defs>
    <clipPath id="clip0_5086_14902">
      <rect width="35" height="35" fill="white" transform="translate(6.5 6.5)"/>
    </clipPath>
  </defs>
</svg>
