<svg width="48" height="48" viewBox="0 0 48 48" fill="none" xmlns="http://www.w3.org/2000/svg">
  <path d="M29.9738 15.8367H31.328L35.1875 11.9783L35.3771 10.3402C33.1661 8.3893 30.4941 7.03409 27.6136 6.40256C24.7331 5.77104 21.739 5.88406 18.9143 6.73095C16.0897 7.57784 13.5275 9.13064 11.47 11.2427C9.41255 13.3547 7.9276 15.9562 7.15546 18.8015C7.58542 18.6253 8.06171 18.5967 8.50966 18.7203L16.2286 17.4477C16.2286 17.4477 16.6213 16.7979 16.8245 16.8385C18.4784 15.0226 20.7641 13.9073 23.2136 13.7211C25.6631 13.5349 28.0913 14.2917 30.0009 15.8367H29.9738Z" fill="#EA4335"/>
  <path d="M40.6859 18.8022C39.7988 15.5364 37.9774 12.6004 35.4451 10.3545L30.0283 15.7697C31.1572 16.6919 32.062 17.8583 32.6742 19.181C33.2865 20.5036 33.5903 21.948 33.5628 23.4052V24.3664C34.1959 24.3664 34.8228 24.4911 35.4077 24.7333C35.9926 24.9755 36.5241 25.3305 36.9717 25.778C37.4194 26.2255 37.7745 26.7568 38.0168 27.3416C38.2591 27.9263 38.3838 28.553 38.3838 29.1859C38.3838 29.8189 38.2591 30.4456 38.0168 31.0303C37.7745 31.615 37.4194 32.1463 36.9717 32.5939C36.5241 33.0414 35.9926 33.3964 35.4077 33.6386C34.8228 33.8808 34.1959 34.0055 33.5628 34.0055H23.9209L22.9594 34.9802V40.761L23.9209 41.7222H33.5628C36.2553 41.7432 38.883 40.8972 41.0572 39.3094C43.2315 37.7216 44.8368 35.4764 45.6357 32.9058C46.4346 30.3353 46.3846 27.5759 45.4932 25.036C44.6017 22.496 42.9162 20.3103 40.6859 18.8022Z" fill="#4285F4"/>
  <path d="M14.2649 41.668H23.9068V33.9513H14.2649C13.578 33.9511 12.8991 33.8034 12.2742 33.5181L10.92 33.9377L7.03347 37.7961L6.69492 39.1499C8.87441 40.7952 11.5339 41.6798 14.2649 41.668Z" fill="#34A853"/>
  <path d="M14.265 16.6358C11.6525 16.6514 9.11011 17.4824 6.99292 19.0126C4.87574 20.5428 3.28948 22.6958 2.45572 25.1711C1.62196 27.6463 1.58232 30.32 2.34235 32.8188C3.10237 35.3176 4.62411 37.5168 6.69501 39.109L12.2879 33.5178C11.5771 33.1968 10.9549 32.7082 10.4746 32.0939C9.99427 31.4796 9.67019 30.758 9.53016 29.991C9.39013 29.224 9.43833 28.4345 9.67062 27.6902C9.90292 26.9459 10.3124 26.2691 10.8638 25.7178C11.4153 25.1664 12.0924 24.7571 12.8369 24.5249C13.5814 24.2927 14.3711 24.2445 15.1384 24.3845C15.9056 24.5245 16.6274 24.8484 17.2419 25.3286C17.8563 25.8088 18.3451 26.4308 18.6662 27.1414L24.259 21.5501C23.0851 20.0159 21.5721 18.774 19.8384 17.9215C18.1046 17.069 16.1971 16.6289 14.265 16.6358Z" fill="#FBBC05"/>
</svg>
