<svg width="48" height="48" viewBox="0 0 48 48" fill="none" xmlns="http://www.w3.org/2000/svg">
  <path fill-rule="evenodd" clip-rule="evenodd" d="M5.58921 35.4717H4.35217V18.9412H5.58921V35.4717ZM4.95308 14.8891C4.4314 14.8891 4 14.4752 4 13.9536C4 13.4165 4.42921 13.0005 4.95308 13.0005C5.49015 13.0005 5.91717 13.4143 5.91717 13.9536C5.91717 14.4752 5.49015 14.8891 4.95308 14.8891Z" fill="url(#paint0_linear_5086_14964)"/>
  <path fill-rule="evenodd" clip-rule="evenodd" d="M17.6044 35.7947C11.5557 35.7947 7.7345 31.3901 7.7345 24.3886C7.7345 17.4219 11.5733 13 17.6044 13C23.6355 13 27.4722 17.4222 27.4722 24.3886C27.4722 31.3904 23.651 35.7947 17.6044 35.7947ZM17.6044 14.1377C12.3394 14.1377 8.97823 18.1129 8.97823 24.3883C8.97823 30.6682 12.3549 34.6589 17.6044 34.6589C22.8694 34.6589 26.2306 30.6682 26.2306 24.3883C26.2306 18.1108 22.8694 14.1377 17.6044 14.1377Z" fill="url(#paint1_linear_5086_14964)"/>
  <path fill-rule="evenodd" clip-rule="evenodd" d="M36.281 35.7943C31.74 35.7943 28.4846 33.23 28.2997 29.5629H29.5125C29.6974 32.5698 32.5216 34.6739 36.3734 34.6739C40.1328 34.6739 42.7567 32.5388 42.7567 29.6553C42.7567 27.3353 41.1916 26.0014 37.4784 25.0659L34.8546 24.4209C30.7582 23.3754 28.8983 21.7179 28.8983 18.9423C28.8983 15.4887 32.1229 13.0015 36.1599 13.0015C40.3332 13.0015 43.4499 15.4579 43.5887 18.7113H42.3759C42.2064 16.0568 39.6135 14.1219 36.129 14.1219C32.7965 14.1219 30.1418 16.1183 30.1418 18.9114C30.1418 21.1235 31.7684 22.3959 35.3276 23.2851L37.7995 23.9146C42.0808 24.9733 44 26.6176 44 29.5627C44 33.2296 40.9162 35.7941 36.2806 35.7941L36.281 35.7943Z" fill="url(#paint2_linear_5086_14964)"/>
  <defs>
    <linearGradient id="paint0_linear_5086_14964" x1="99.8584" y1="13.0005" x2="99.8584" y2="1969.17" gradientUnits="userSpaceOnUse">
      <stop stop-color="#0339F1"/>
      <stop offset="1" stop-color="#01ADE5"/>
    </linearGradient>
    <linearGradient id="paint1_linear_5086_14964" x1="284.279" y1="230.341" x2="1647.98" y2="1534.27" gradientUnits="userSpaceOnUse">
      <stop stop-color="#0756EE"/>
      <stop offset="0.37448" stop-color="#00A3F5"/>
      <stop offset="0.71708" stop-color="#18B5B6"/>
      <stop offset="1" stop-color="#80DF43"/>
    </linearGradient>
    <linearGradient id="paint2_linear_5086_14964" x1="232.671" y1="83.0393" x2="1903.86" y2="1454.19" gradientUnits="userSpaceOnUse">
      <stop stop-color="#20BBA6"/>
      <stop offset="0.4988" stop-color="#9BEC23"/>
      <stop offset="1" stop-color="#D9EF35"/>
    </linearGradient>
  </defs>
</svg>
