<svg width="48" height="48" viewBox="0 0 48 48" fill="none" xmlns="http://www.w3.org/2000/svg">
  <g clip-path="url(#clip0_5086_14892)">
    <path d="M18.4105 34.9231C18.4105 34.9231 16.8685 35.8579 19.4838 36.1257C22.6253 36.5257 24.3095 36.4596 27.7948 35.7918C27.7948 35.7918 28.7329 36.3918 30.007 36.8614C22.1646 40.2005 12.2452 36.6614 18.4113 34.9249L18.4105 34.9231ZM17.4051 30.5823C17.4051 30.5823 15.7297 31.8519 18.3432 32.1188C21.7614 32.4527 24.4517 32.5188 29.0681 31.5849C29.0681 31.5849 29.6701 32.2527 30.6763 32.5866C21.2256 35.3918 10.6352 32.8536 17.4051 30.5831V30.5823ZM35.9051 38.1961C35.9051 38.1961 37.0448 39.1309 34.6311 39.8657C30.1405 41.2013 15.7969 41.6022 11.7749 39.8657C10.3673 39.2657 13.0489 38.3875 13.9198 38.2631C14.7925 38.0631 15.2602 38.0631 15.2602 38.0631C13.7191 36.9936 5.00493 40.2674 10.8359 41.1935C26.855 43.7978 40.059 40.0579 35.9034 38.1883L35.9051 38.1961ZM19.147 26.0406C19.147 26.0406 11.8412 27.7771 16.5325 28.378C18.5431 28.6449 22.4979 28.578 26.184 28.311C29.1998 28.0441 32.2165 27.5093 32.2165 27.5093C32.2165 27.5093 31.1431 27.9771 30.4066 28.4441C22.9665 30.3806 8.6901 29.5136 12.7793 27.5093C16.2646 25.8397 19.147 26.0311 19.147 26.0311V26.0406ZM32.2174 33.3206C39.7239 29.4466 36.2386 25.7066 33.8256 26.1745C33.2236 26.3084 32.9531 26.4415 32.9531 26.4415C32.9531 26.4415 33.1537 26.0415 33.6232 25.9076C38.3817 24.238 42.1358 30.9162 32.0812 33.5214C32.0812 33.5214 32.1485 33.4545 32.2156 33.3214L32.2174 33.3206ZM19.8852 43.8726C27.1238 44.3405 38.1845 43.6056 38.4516 40.1996C38.4516 40.1996 37.9157 41.5352 32.4861 42.537C26.3201 43.6726 18.6792 43.5387 14.1869 42.8039C14.1869 42.8039 15.125 43.6048 19.8852 43.8726Z" fill="#4E7896"/>
    <path d="M27.6597 4C27.6597 4 31.8152 8.20866 23.7048 14.5529C17.2037 19.6955 22.2213 22.6347 23.7048 25.9737C19.8844 22.5677 17.1365 19.5625 19.0127 16.7564C21.7615 12.6156 29.3351 10.6121 27.6597 4ZM25.5148 23.1685C27.4581 25.3728 24.978 27.3772 24.978 27.3772C24.978 27.3772 29.9382 24.8381 27.6588 21.699C25.5819 18.6937 23.9728 17.2242 32.6853 12.2147C32.6853 12.2147 18.9446 15.6207 25.5138 23.1677L25.5148 23.1685Z" fill="#F58219"/>
  </g>
  <defs>
    <clipPath id="clip0_5086_14892">
      <rect width="30" height="40" fill="white" transform="translate(8.84998 4)"/>
    </clipPath>
  </defs>
</svg>
