<svg width="48" height="48" viewBox="0 0 48 48" fill="none" xmlns="http://www.w3.org/2000/svg">
  <g clip-path="url(#clip0_5086_14897)">
    <path d="M22.1281 4.42674C23.1199 3.85904 24.4117 3.85647 25.4026 4.42674C30.3881 7.24377 35.3751 10.0564 40.3596 12.8752C41.2972 13.4032 41.9243 14.4466 41.9148 15.5269V32.4752C41.9217 33.6002 41.2326 34.6686 40.2436 35.1847C35.2746 37.9862 30.3081 40.7912 25.3398 43.5927C24.3275 44.1715 23.0097 44.1269 22.0291 43.5007C20.5393 42.637 19.0471 41.7777 17.5571 40.9149C17.2527 40.7335 16.9096 40.589 16.6946 40.2938C16.8846 40.0377 17.2244 40.0057 17.5005 39.8939C18.1223 39.6962 18.6935 39.3788 19.2647 39.0708C19.4091 38.9719 19.5856 39.0098 19.724 39.0982C20.9979 39.8287 22.2606 40.5803 23.5387 41.3037C23.8114 41.4612 24.0875 41.2522 24.3206 41.1222C29.1967 38.3663 34.0788 35.6208 38.9541 32.864C39.1348 32.7772 39.2346 32.5854 39.22 32.3875C39.2234 26.7966 39.2208 21.2047 39.2217 15.6138C39.2424 15.3893 39.1124 15.1828 38.9094 15.091C33.9576 12.3023 29.0084 9.50934 24.0574 6.71994C23.9716 6.66097 23.87 6.62933 23.7659 6.62918C23.6618 6.62902 23.5601 6.66037 23.4741 6.71909C18.5232 9.50934 13.5748 12.3049 8.62384 15.0934C8.42154 15.1854 8.28577 15.3884 8.30985 15.6138C8.3107 21.2047 8.30985 26.7966 8.30985 32.3883C8.30126 32.4849 8.32247 32.5817 8.37061 32.6659C8.41875 32.75 8.49151 32.8174 8.5791 32.8589C9.90029 33.6081 11.2232 34.3521 12.5452 35.0987C13.29 35.4996 14.2045 35.7377 15.0251 35.4306C15.7492 35.1709 16.2568 34.432 16.243 33.6631C16.2498 28.1048 16.2396 22.5457 16.2481 16.9882C16.23 16.7415 16.4641 16.5377 16.704 16.5609C17.3388 16.5566 17.9745 16.5523 18.6092 16.5626C18.8742 16.5566 19.0566 16.8223 19.0238 17.0709C19.0212 22.6643 19.0306 28.258 19.0196 33.8514C19.0212 35.3422 18.4088 36.9642 17.0299 37.6936C15.3312 38.5736 13.2316 38.387 11.5534 37.5432C10.1006 36.8181 8.71415 35.9622 7.28712 35.1854C6.29545 34.6722 5.60978 33.5996 5.61676 32.4754V15.5269C5.60636 14.4242 6.25841 13.3619 7.22515 12.8415C12.1933 10.0377 17.1607 7.23181 22.1281 4.42674Z" fill="#8CC84B"/>
    <path d="M26.4622 16.1671C28.6292 16.0276 30.9488 16.0844 32.8987 17.1519C34.4083 17.9699 35.2453 19.6867 35.2719 21.3639C35.2297 21.5901 34.9933 21.7149 34.7773 21.6994C34.1487 21.6985 33.5198 21.7079 32.8912 21.6951C32.6244 21.7053 32.4694 21.4595 32.436 21.2237C32.2553 20.4212 31.8177 19.6264 31.0623 19.2393C29.9028 18.6588 28.5585 18.6881 27.2941 18.7002C26.3711 18.7492 25.3786 18.8291 24.5966 19.3718C23.9962 19.783 23.8139 20.613 24.0282 21.2814C24.2302 21.7613 24.7842 21.9162 25.2376 22.059C27.8488 22.7419 30.616 22.674 33.1775 23.5727C34.238 23.9392 35.2754 24.6515 35.6383 25.7618C36.1132 27.2499 35.9051 29.0287 34.8462 30.2234C33.9877 31.2065 32.7372 31.7416 31.4899 32.0322C29.8307 32.4022 28.1087 32.4116 26.4237 32.2473C24.8392 32.0667 23.1904 31.6504 21.9672 30.5708C20.9212 29.6627 20.4104 28.2476 20.4611 26.8818C20.4732 26.6512 20.7028 26.4903 20.9238 26.5093C21.5569 26.5042 22.19 26.5025 22.8231 26.5102C23.076 26.4921 23.2635 26.7106 23.2764 26.9489C23.3932 27.7135 23.6806 28.516 24.3473 28.9693C25.634 29.7994 27.2485 29.7426 28.7218 29.7658C29.9425 29.7117 31.3127 29.6953 32.3087 28.8886C32.8343 28.4284 32.99 27.6585 32.848 26.9962C32.6941 26.4371 32.1092 26.1765 31.6068 26.0062C29.029 25.1907 26.2309 25.4866 23.678 24.5644C22.6416 24.1982 21.6394 23.5057 21.2412 22.4409C20.6857 20.9339 20.9402 19.07 22.1099 17.9157C23.2505 16.7674 24.8969 16.3253 26.4622 16.1671Z" fill="#8CC84B"/>
  </g>
  <defs>
    <clipPath id="clip0_5086_14897">
      <rect width="36.6667" height="40" fill="white" transform="translate(5.61664 4)"/>
    </clipPath>
  </defs>
</svg>
