<svg width="48" height="48" viewBox="0 0 48 48" fill="none" xmlns="http://www.w3.org/2000/svg">
  <path fill-rule="evenodd" clip-rule="evenodd" d="M19.5246 3C16.229 3 13.5574 5.58679 13.5574 8.77778V12.7778H23.8853V13.8889H8.96721C5.6716 13.8889 3 16.4757 3 19.6667V28.3334C3 31.5243 5.6716 34.111 8.96721 34.111H12.4098V29.2223C12.4098 26.0313 15.0815 23.4444 18.3771 23.4444H29.3934C32.1821 23.4444 34.4426 21.2556 34.4426 18.5556V8.77778C34.4426 5.58679 31.7711 3 28.4754 3H19.5246ZM18.1476 10.1111C19.2884 10.1111 20.2131 9.21567 20.2131 8.11112C20.2131 7.00655 19.2884 6.1111 18.1476 6.1111C17.0067 6.1111 16.082 7.00655 16.082 8.11112C16.082 9.21567 17.0067 10.1111 18.1476 10.1111Z" fill="url(#paint0_linear_962_627)"/>
  <path fill-rule="evenodd" clip-rule="evenodd" d="M28.4756 45.0002C31.7712 45.0002 34.4429 42.4135 34.4429 39.2225V35.2225H24.1149V34.1114H39.033C42.3287 34.1114 45.0002 31.5245 45.0002 28.3336V19.6669C45.0002 16.4759 42.3287 13.8892 39.033 13.8892H35.5904V18.778C35.5904 21.9691 32.9187 24.5558 29.6232 24.5558H18.6068C15.8181 24.5558 13.5576 26.7446 13.5576 29.4446V39.2225C13.5576 42.4135 16.2293 45.0002 19.5248 45.0002H28.4756ZM29.8527 37.8892C28.7118 37.8892 27.7871 38.7845 27.7871 39.8891C27.7871 40.9937 28.7118 41.8891 29.8527 41.8891C30.9935 41.8891 31.9182 40.9937 31.9182 39.8891C31.9182 38.7845 30.9935 37.8892 29.8527 37.8892Z" fill="url(#paint1_linear_962_627)"/>
  <defs>
    <linearGradient id="paint0_linear_962_627" x1="18.7213" y1="3" x2="18.7213" y2="34.111" gradientUnits="userSpaceOnUse">
      <stop stop-color="#327EBD"/>
      <stop offset="1" stop-color="#1565A7"/>
    </linearGradient>
    <linearGradient id="paint1_linear_962_627" x1="29.279" y1="13.8892" x2="29.279" y2="45.0002" gradientUnits="userSpaceOnUse">
      <stop stop-color="#FFDA4B"/>
      <stop offset="1" stop-color="#F9C600"/>
    </linearGradient>
  </defs>
</svg>
