<svg width="48" height="48" viewBox="0 0 48 48" fill="none" xmlns="http://www.w3.org/2000/svg">
  <g clip-path="url(#clip0_5086_14919)">
    <path d="M24 27.8594C25.969 27.8594 27.5652 26.2632 27.5652 24.2942C27.5652 22.3252 25.969 20.729 24 20.729C22.031 20.729 20.4348 22.3252 20.4348 24.2942C20.4348 26.2632 22.031 27.8594 24 27.8594Z" fill="#61DAFB"/>
    <path d="M23.9999 31.5994C34.5654 31.5994 43.1304 28.3291 43.1304 24.2951C43.1304 20.261 34.5654 16.9907 23.9999 16.9907C13.4345 16.9907 4.86951 20.261 4.86951 24.2951C4.86951 28.3291 13.4345 31.5994 23.9999 31.5994Z" stroke="#61DAFB" stroke-width="1.62162"/>
    <path d="M17.6742 27.9465C22.9569 37.0964 30.0716 42.8788 33.5652 40.8618C37.0588 38.8447 35.6084 29.7921 30.3257 20.6421C25.043 11.4922 17.9284 5.70984 14.4347 7.72688C10.9411 9.74392 12.3915 18.7965 17.6742 27.9465Z" stroke="#61DAFB" stroke-width="1.62162"/>
    <path d="M17.6742 20.641C12.3914 29.791 10.9411 38.8436 14.4347 40.8606C17.9283 42.8777 25.0429 37.0953 30.3257 27.9454C35.6084 18.7954 37.0587 9.7428 33.5651 7.72576C30.0715 5.70872 22.9569 11.4911 17.6742 20.641Z" stroke="#61DAFB" stroke-width="1.62162"/>
  </g>
  <defs>
    <clipPath id="clip0_5086_14919">
      <rect width="40" height="40" fill="white" transform="translate(4 4)"/>
    </clipPath>
  </defs>
</svg>
